<svg width="27" height="35" viewBox="0 0 27 35" fill="none" xmlns="http://www.w3.org/2000/svg">
<path d="M13.5 17.5C14.4281 17.5 15.2229 17.1576 15.8844 16.4727C16.5459 15.7879 16.8761 14.9637 16.875 14C16.875 13.0375 16.5448 12.2138 15.8844 11.529C15.2241 10.8442 14.4292 10.5012 13.5 10.5C12.5719 10.5 11.7776 10.843 11.1173 11.529C10.4569 12.215 10.1261 13.0387 10.125 14C10.125 14.9625 10.4558 15.7867 11.1173 16.4727C11.7788 17.1588 12.573 17.5012 13.5 17.5ZM13.5 35C8.97188 31.0042 5.59012 27.293 3.35475 23.8665C1.11937 20.44 0.001125 17.2678 0 14.35C0 9.975 1.35731 6.48958 4.07194 3.89375C6.78656 1.29792 9.92925 0 13.5 0C17.0719 0 20.2151 1.29792 22.9297 3.89375C25.6444 6.48958 27.0011 9.975 27 14.35C27 17.2667 25.8823 20.4388 23.6469 23.8665C21.4116 27.2942 18.0292 31.0053 13.5 35Z" fill="#107300"/>
</svg>
