<svg width="25" height="26" viewBox="0 0 25 26" xmlns="http://www.w3.org/2000/svg">
<path d="M13.6883 22.4689L20.2077 16.1431L13.9159 9.59094C13.8594 9.51394 13.787 9.44999 13.7036 9.40341C13.6202 9.35683 13.5278 9.3287 13.4326 9.32094C13.3374 9.31317 13.2417 9.32595 13.1519 9.35841C13.062 9.39086 12.9802 9.44224 12.912 9.50905C12.8438 9.57587 12.7907 9.65657 12.7563 9.74569C12.722 9.83481 12.7072 9.93026 12.713 10.0256C12.7187 10.1209 12.7449 10.2139 12.7897 10.2982C12.8345 10.3826 12.8969 10.4563 12.9727 10.5144L17.6799 15.4317L4.92857 15.2063C4.75179 15.2032 4.58101 15.2705 4.45379 15.3933C4.32658 15.516 4.25335 15.6843 4.25023 15.8611C4.24711 16.0379 4.31434 16.2087 4.43713 16.3359C4.55993 16.4631 4.72823 16.5364 4.90501 16.5395L17.6564 16.7648L12.7784 21.5127C12.6515 21.636 12.5788 21.8047 12.5763 21.9816C12.5738 22.1585 12.6417 22.3291 12.765 22.4559C12.8883 22.5828 13.057 22.6555 13.2339 22.658C13.4108 22.6605 13.5814 22.5926 13.7083 22.4693L13.6883 22.4689Z" fill="currentColor"/>
</svg>
