<svg width="155" height="157" viewBox="0 0 155 157" fill="none" xmlns="http://www.w3.org/2000/svg">
<path fill-rule="evenodd" clip-rule="evenodd" d="M0.659692 39.2139C33.2476 15.8031 55.7065 -27.4325 68.0572 -33.9488C80.8194 -40.6822 127.111 -32.4123 167.907 -44.6906C178.143 -22.7691 185.19 -2.28881 189.068 18.0288C186.276 20.4204 183.52 22.9536 180.802 25.61C177.733 5.52869 171.619 -13.9972 162.928 -34.1715C144.979 -30.1864 126.505 -29.1038 108.132 -28.7731C102.049 -28.6641 76.8145 -29.0046 71.9033 -26.8439C67.8534 -24.3409 57.1843 -9.67865 54.0858 -5.60915C43.5701 8.20519 32.9243 21.8245 20.4574 33.9675C17.7467 36.6082 14.955 39.1733 12.0749 41.6333C26.0361 65.943 43.4042 88.1349 64.2067 105.975L62.3729 116.823C37.4724 96.5549 16.782 69.8567 0.659334 39.2132L0.659692 39.2139ZM120.888 139.34C136.706 100.02 171.967 38.2927 212.409 14.4126C169.689 55.0208 141.421 102.42 129.388 151.672C108.571 146.519 85.2021 133.725 72.0849 124.251L73.8594 113.752C88.2273 125.161 109.246 134.947 120.888 139.339L120.888 139.34ZM101.225 118.52C102.645 109.393 101.23 102.264 94.05 87.9525C88.7277 77.3435 86.1652 71.3496 88.5896 60.1974C91.6546 46.0989 104.544 35.5119 119.394 35.2145C121.442 35.1735 123.432 35.3139 125.285 35.6435C126.34 35.8309 127.001 36.0563 128.08 36.3119C132.686 37.4026 137.118 39.5135 140.737 42.7145C146.316 47.6522 149.279 53.1902 152.322 59.4477C153.804 57.3653 155.309 55.3047 156.834 53.2684L154.842 49.3004C152.472 44.5772 147.983 39.4768 144.749 36.991C142.894 35.5666 140.928 34.2007 139.068 33.201C128.602 27.5802 115.04 26.2312 103.935 31.8027C97.6053 34.9781 93.4391 37.6165 89.4589 42.9878C88.0232 44.9253 86.8939 46.3434 85.7268 48.3849C84.7684 50.0598 83.5796 52.6516 82.9974 54.4185C73.7926 82.3202 94.4464 91.2955 94.6358 112.58C94.6425 113.332 94.6271 114.064 94.5912 114.782C96.7577 116.066 98.9781 117.314 101.226 118.519L101.225 118.52ZM164.592 92.3566C166.18 99.7673 167.023 107.15 167.082 113.986C168.114 111.141 168.894 108.746 169.267 107.223C170.154 103.608 171.496 100.022 172.192 96.386C172.247 96.1028 172.301 95.8195 172.358 95.537C171.671 91.2016 170.807 87.2897 169.756 83.5779C167.98 86.473 166.258 89.3987 164.592 92.3566ZM101.204 21.8477C102.953 25.3326 108.493 21.7106 115.02 21.1227C118.34 20.8229 118.448 21.3523 121.121 20.0112C122.814 19.1616 122.362 17.0668 121.658 15.6648C120.425 13.2068 116.443 13.94 113.033 14.3786C109.147 14.8794 98.2663 15.993 101.204 21.8487L101.204 21.8477ZM60.4834 38.1998C61.7933 40.8108 63.7188 40.2008 65.1929 39.4612C66.6492 38.7307 71.3892 29.4631 76.9332 24.351C83.5052 18.293 77.5121 15.6139 75.1226 16.8127C72.9718 17.8917 66.997 24.8263 65.7102 26.6614C63.8872 29.2601 59.0269 35.2966 60.4838 38.2005L60.4834 38.1998ZM135.209 -6.99C138.245 -8.51317 137.797 -12.7685 134.047 -13.4881C130.04 -14.2557 125.621 -14.5555 121.497 -14.7548C119.667 -14.8432 109.169 -14.3114 107.858 -13.6536C104.768 -12.1035 105.402 -7.61537 109.016 -7.14758C109.022 -7.14687 121.208 -7.93331 126.622 -7.4733C128.53 -7.31104 133.641 -6.2035 135.209 -6.99ZM87.0869 110.038C87.0019 109.242 86.8838 108.413 86.7286 107.544C86.095 104.003 84.11 96.5624 79.579 98.8355C77.5311 99.8629 77.5463 101.285 78.1511 103.352L80.5841 105.283C82.6102 106.892 84.7924 108.48 87.0877 110.037L87.0869 110.038ZM144.991 -4.64923C146.058 -2.52199 149.073 -2.06876 153.378 0.0738016C159.722 3.23219 165.733 7.1715 171.015 12.0703C170.045 8.22576 168.953 4.3871 167.745 0.543615L167.711 0.519709C166.143 -0.547882 165.371 -1.16965 163.753 -2.10025L155.856 -6.48106C152.795 -7.96316 148.935 -10.2518 146.435 -8.99751C144.684 -8.11924 144.113 -6.40025 144.992 -4.64958L144.991 -4.64923ZM28.404 52.6244C29.7903 52.7562 31.1911 52.0132 31.8629 50.4267C32.4092 49.1321 32.56 48.2399 32.838 46.8241C33.7939 41.9406 36.7671 33.9593 39.8022 27.6525C36.887 30.893 33.8774 34.0539 30.7396 37.111C29.6556 38.1664 28.5576 39.2083 27.445 40.2351C26.5099 43.094 25.7445 45.7883 25.4068 47.7215C26.3897 49.3669 27.3872 51.0023 28.4047 52.624L28.404 52.6244ZM70.8727 88.7069C72.644 92.2375 73.2641 94.7554 77.3971 92.682C78.7262 92.0152 78.7534 89.6788 78.3746 88.4816C76.7356 83.2944 74.989 82.9274 73.7194 73.0605C72.1431 60.8012 75.634 49.1346 82.9378 39.3152C89.4686 30.5365 96.6291 28.9781 94.5097 24.7536C90.7823 17.3237 77.3077 35.3468 76.2292 36.7876C71.9291 42.5322 69.2231 49.2133 67.7399 55.9927C65.5634 65.9472 66.0225 79.0389 70.8731 88.7076L70.8727 88.7069ZM129.994 20.5413C131.171 22.8865 136.149 23.8423 138.287 24.6434C141.142 25.7129 143.778 27.4008 146.429 29.198C153.634 34.0825 158.08 40.0646 161.822 46.8038C163.378 44.8471 164.954 42.9216 166.547 41.0303L166.418 40.7731C164.583 37.1153 161.469 33.565 159.126 30.9314C156.664 28.1632 153.62 25.7469 150.704 23.5828C147.797 21.4262 134.922 14.4444 131.798 16.0116C130.184 16.8211 129.276 19.1111 129.993 20.5409L129.994 20.5413ZM175.009 75.3444C175.18 75.6387 175.356 75.9099 175.539 76.1534C175.607 75.5202 175.67 74.8884 175.731 74.2569L175.009 75.3437L175.009 75.3444ZM65.9192 95.8303C63.6901 91.0626 61.7893 86.377 60.8229 82.0544C59.9834 78.2987 59.4492 75.3031 59.229 71.5712L59.6831 59.3531C60.2897 54.7968 62.3114 49.0977 61.324 47.3419C60.3851 45.6717 55.755 43.3383 54.4684 50.0818C52.2033 61.9545 50.6329 68.5049 53.7678 82.4286C54.1638 84.1913 54.638 85.8907 55.1636 87.5321C58.5165 91.0956 61.9908 94.5267 65.5844 97.8121L65.9185 95.8307L65.9192 95.8303ZM63.9248 -2.4061C65.8539 -3.79157 67.9113 -5.48289 70.0641 -6.88761C78.6943 -12.514 87.5199 -16.5705 96.6089 -19.0731C88.5492 -18.9508 79.5037 -18.5915 76.8883 -17.4404C74.1312 -15.737 67.9572 -7.75535 63.9244 -2.40682L63.9248 -2.4061ZM136.147 -20.5509C137.444 -20.3188 138.747 -20.061 140.057 -19.7764C141.683 -19.4225 142.735 -19.0074 144.221 -18.6912C148.705 -17.7355 152.776 -14.9026 154.383 -19.0284C155.064 -20.7815 154.227 -22.0227 153.001 -22.8848C147.424 -21.8502 141.799 -21.0987 136.148 -20.5505L136.147 -20.5509ZM84.8943 12.8147C85.5246 14.0709 86.2577 15.5554 88.7351 14.8778C92.0688 13.9673 102.13 6.85996 117.725 6.60773C124.398 6.49939 133.077 7.52241 139.356 9.60547L145.971 12.3956C158.624 18.7832 165.511 25.5429 171.603 35.2203C172.687 34.0158 173.778 32.8277 174.877 31.6593C174.628 29.8928 174.352 28.1313 174.051 26.3749C168.437 18.8337 162.044 13.7687 154.349 8.96436C151.465 7.16346 143.848 3.71147 140.43 2.73002C135.526 1.32011 130.501 0.270368 125.382 -0.104947C117.953 -0.646995 112.592 -0.247253 105.303 1.31487C97.6771 2.9486 93.9654 4.64071 86.6991 8.28606C84.9492 9.16397 83.958 10.9483 84.8943 12.8147ZM45.2082 76.1473C44.3331 68.2738 44.7371 60.2076 46.2512 52.7839C49.5569 36.5692 57.2292 23.1984 69.3024 11.8646C77.3629 4.29688 85.5296 0.235587 95.5141 -3.693C98.9792 -5.05657 99.0386 -6.84925 97.7216 -9.47454C95.7514 -13.4017 82.691 -5.5206 79.2561 -3.83851C75.1802 -1.84381 70.3051 1.90238 66.9962 4.76269C65.6263 5.9472 64.3844 6.79117 63.1626 8.01588L57.1842 14.48C51.8129 21.6833 47.4746 27.1663 44.0465 36.3642C43.0138 39.1299 42.2696 40.335 41.244 43.8816C39.3583 50.4024 39.0044 53.9437 38.1678 60.3577C37.883 62.5407 37.8653 64.536 37.8763 66.6296C40.2406 69.8735 42.685 73.0485 45.2082 76.1473ZM128.523 97.8811C126.834 90.7201 124.105 83.7471 120.836 77.2318C116.904 69.3938 113.941 66.647 119.187 64.0151C120.504 63.3544 122.606 64.5092 123.355 66.002C126.902 73.0725 130.925 80.6304 133.795 88.4291C135.236 85.9242 136.713 83.4195 138.227 80.9238C135.666 74.9814 132.553 68.9846 129.145 62.1913C127.948 59.8068 125.565 58.3638 123.739 57.5737C121.876 56.7667 119.185 56.7249 116.81 57.4703C111.687 59.0782 109.184 63.8176 109.407 68.3124C109.629 72.7449 114.949 79.6662 116.781 84.635C120.579 94.939 122.512 98.6793 123.07 108.35C124.808 104.888 126.627 101.393 128.522 97.8804L128.523 97.8811ZM135.296 58.1992C138.076 63.7413 140.647 68.6659 142.911 73.4075C144.421 71.0458 145.961 68.6967 147.531 66.3682C147.203 65.6954 146.872 65.0208 146.531 64.3413C141.544 54.4004 138.883 48.4495 129.068 44.2407C114.896 38.1651 94.6009 48.2118 95.1018 68.994C95.4024 81.4596 113.007 97.1361 108.314 122.139C110.404 123.154 112.494 124.125 114.56 125.045C115.193 122.359 115.719 119.503 115.818 115.991C116.251 100.742 113.327 94.7671 106.354 80.874C101.977 72.1546 100.341 66.8834 104.192 59.0389C110.448 46.2942 129.746 47.1339 135.297 58.1996L135.296 58.1992ZM152.569 116.577C152.553 116.912 152.532 117.254 152.502 117.606C152.084 122.71 151.978 128.338 150.567 133.556L149.178 138.798C151.46 139.157 153.835 139.474 155.807 139.617C156.031 139.235 156.263 138.824 156.499 138.392C159.488 125.769 160.372 114.291 159.004 102.824C156.722 107.343 154.575 111.927 152.569 116.577L152.569 116.577ZM192.592 51.5554C192.833 63.7201 191.969 76.0742 189.997 88.8839C189.345 93.1178 188.455 96.6052 187.698 100.56C186.856 104.96 185.434 108.707 184.453 112.704C182.319 121.416 169.518 152.909 164.397 156.238C161.434 158.165 144.274 155.049 140.76 154.346C140.475 154.289 140.192 154.226 139.908 154.168C140.627 151.23 141.404 148.313 142.235 145.417C143.028 145.588 143.822 145.755 144.621 145.914C147.91 146.572 154.994 147.883 159.877 148.236C164.958 139.558 173.278 118.657 174.879 112.124C175.867 108.093 177.364 104.097 178.14 100.043C178.892 96.1124 179.863 92.2185 180.471 88.2614C181.746 79.9795 182.538 71.9382 182.875 64.0756C186.001 59.819 189.243 55.6446 192.592 51.5547L192.592 51.5554Z" fill="#f00" fill-opacity="0.04"/>
<defs>
<linearGradient id="paint0_linear_1457_5844" x1="32.6897" y1="103.06" x2="211.802" y2="13.2029" gradientUnits="userSpaceOnUse">
<stop stop-color="white"/>
<stop offset="1" stop-color="white"/>
</linearGradient>
</defs>
</svg>
