<svg width="20" height="20" viewBox="0 0 20 20" xmlns="http://www.w3.org/2000/svg">
<path d="M16.2493 3.33268H13.7493V2.08268C13.7493 1.97218 13.7055 1.86619 13.6273 1.78805C13.5492 1.70991 13.4432 1.66602 13.3327 1.66602C13.2222 1.66602 13.1162 1.70991 13.0381 1.78805C12.9599 1.86619 12.916 1.97218 12.916 2.08268V3.33268H7.08268V2.08268C7.08268 1.97218 7.03878 1.86619 6.96064 1.78805C6.8825 1.70991 6.77652 1.66602 6.66602 1.66602C6.55551 1.66602 6.44953 1.70991 6.37139 1.78805C6.29325 1.86619 6.24935 1.97218 6.24935 2.08268V3.33268H3.74935C3.19702 3.33334 2.6675 3.55305 2.27694 3.94361C1.88638 4.33416 1.66668 4.86368 1.66602 5.41602V16.2493C1.66668 16.8017 1.88638 17.3312 2.27694 17.7218C2.6675 18.1123 3.19702 18.332 3.74935 18.3327H16.2493C16.8019 18.3327 17.3318 18.1132 17.7225 17.7225C18.1132 17.3318 18.3327 16.8019 18.3327 16.2493V5.41602C18.3327 4.86348 18.1132 4.33358 17.7225 3.94288C17.3318 3.55218 16.8019 3.33268 16.2493 3.33268ZM17.4993 16.2493C17.4993 16.5809 17.3677 16.8988 17.1332 17.1332C16.8988 17.3677 16.5809 17.4993 16.2493 17.4993H3.74935C3.41783 17.4993 3.09989 17.3677 2.86547 17.1332C2.63105 16.8988 2.49935 16.5809 2.49935 16.2493V9.16602H17.4993V16.2493ZM17.4993 8.33268H2.49935V5.41602C2.49935 4.72602 3.05768 4.16602 3.74935 4.16602H6.24935V5.41602C6.24935 5.52652 6.29325 5.6325 6.37139 5.71064C6.44953 5.78878 6.55551 5.83268 6.66602 5.83268C6.77652 5.83268 6.8825 5.78878 6.96064 5.71064C7.03878 5.6325 7.08268 5.52652 7.08268 5.41602V4.16602H12.916V5.41602C12.916 5.52652 12.9599 5.6325 13.0381 5.71064C13.1162 5.78878 13.2222 5.83268 13.3327 5.83268C13.4432 5.83268 13.5492 5.78878 13.6273 5.71064C13.7055 5.6325 13.7493 5.52652 13.7493 5.41602V4.16602H16.2493C16.5809 4.16602 16.8988 4.29771 17.1332 4.53213C17.3677 4.76655 17.4993 5.08449 17.4993 5.41602V8.33268Z" fill="currentColor"/>
</svg>
