<svg width="17" height="17" viewBox="0 0 17 17" fill="none" xmlns="http://www.w3.org/2000/svg">
<g clip-path="url(#clip0_1014_5602)">
<path d="M15.9375 1.59197L11.6838 1.59198V0.533203C11.6838 0.239687 11.446 0.00195312 11.1525 0.00195312C10.859 0.00195312 10.6213 0.239687 10.6213 0.533203V1.59172H6.37128V0.533203C6.37128 0.239687 6.13355 0.00195312 5.84003 0.00195312C5.54652 0.00195312 5.30878 0.239687 5.30878 0.533203V1.59172H1.0625C0.475734 1.59172 0 2.06745 0 2.65422V15.9355C0 16.5222 0.475734 16.998 1.0625 16.998H15.9375C16.5243 16.998 17 16.5222 17 15.9355V2.65422C17 2.0677 16.5243 1.59197 15.9375 1.59197ZM15.9375 15.9355H1.0625V2.65422H5.30878V3.18945C5.30878 3.48295 5.54652 3.7207 5.84003 3.7207C6.13355 3.7207 6.37128 3.48295 6.37128 3.18945V2.65448H10.6213V3.18972C10.6213 3.48323 10.859 3.72097 11.1525 3.72097C11.446 3.72097 11.6838 3.48323 11.6838 3.18972V2.65448H15.9375V15.9355ZM12.2188 8.49822H13.2812C13.5745 8.49822 13.8125 8.26022 13.8125 7.96697V6.90447C13.8125 6.61122 13.5745 6.37322 13.2812 6.37322H12.2188C11.9255 6.37322 11.6875 6.61122 11.6875 6.90447V7.96697C11.6875 8.26022 11.9255 8.49822 12.2188 8.49822ZM12.2188 12.748H13.2812C13.5745 12.748 13.8125 12.5102 13.8125 12.2167V11.1542C13.8125 10.861 13.5745 10.623 13.2812 10.623H12.2188C11.9255 10.623 11.6875 10.861 11.6875 11.1542V12.2167C11.6875 12.5105 11.9255 12.748 12.2188 12.748ZM9.03125 10.623H7.96875C7.6755 10.623 7.4375 10.861 7.4375 11.1542V12.2167C7.4375 12.5102 7.6755 12.748 7.96875 12.748H9.03125C9.3245 12.748 9.5625 12.5102 9.5625 12.2167V11.1542C9.5625 10.8612 9.3245 10.623 9.03125 10.623ZM9.03125 6.37322H7.96875C7.6755 6.37322 7.4375 6.61122 7.4375 6.90447V7.96697C7.4375 8.26022 7.6755 8.49822 7.96875 8.49822H9.03125C9.3245 8.49822 9.5625 8.26022 9.5625 7.96697V6.90447C9.5625 6.61095 9.3245 6.37322 9.03125 6.37322ZM4.78125 6.37322H3.71875C3.4255 6.37322 3.1875 6.61122 3.1875 6.90447V7.96697C3.1875 8.26022 3.4255 8.49822 3.71875 8.49822H4.78125C5.0745 8.49822 5.3125 8.26022 5.3125 7.96697V6.90447C5.3125 6.61095 5.0745 6.37322 4.78125 6.37322ZM4.78125 10.623H3.71875C3.4255 10.623 3.1875 10.861 3.1875 11.1542V12.2167C3.1875 12.5102 3.4255 12.748 3.71875 12.748H4.78125C5.0745 12.748 5.3125 12.5102 5.3125 12.2167V11.1542C5.3125 10.8612 5.0745 10.623 4.78125 10.623Z" fill="black"/>
</g>
<defs>
<clipPath id="clip0_1014_5602">
<rect width="17" height="17" fill="white"/>
</clipPath>
</defs>
</svg>
