<svg width="24" height="24" viewBox="0 0 24 24" fill="none" xmlns="http://www.w3.org/2000/svg">
<path d="M11.5629 3.60156L12.4691 3.65438L13.364 3.81217L14.2362 4.07294L15.0748 4.43342L15.8692 4.88908L16.6095 5.43418L17.2863 6.06187L17.8911 6.76425L18.4164 7.53249L18.8554 8.35694L19.2028 9.22722L19.454 10.1324L19.6061 11.0611L19.657 12.0016L19.6061 12.9421L19.454 13.8707L19.2028 14.7759L18.8554 15.6462L18.4164 16.4706L17.8911 17.2389L17.2863 17.9413L16.6095 18.5689L15.8692 19.114L15.0748 19.5697L14.2362 19.9302L13.364 20.191L12.4691 20.3487L11.5629 20.4016L10.6566 20.3487L9.76176 20.191L8.88955 19.9302L8.05096 19.5697L7.25654 19.114L6.51627 18.5689L5.83946 17.9413L5.23463 17.2389L4.70938 16.4706L4.27032 15.6462L3.92297 14.7759L3.67169 13.8707L3.51964 12.9421L3.46875 12.0016L3.51964 11.0611L3.67169 10.1324L3.92297 9.22722L4.27032 8.35694L4.70938 7.53249L5.23463 6.76425L5.83946 6.06187L6.51627 5.43418L7.25654 4.88908L8.05096 4.43342L8.88955 4.07294L9.76176 3.81217L10.6566 3.65438L11.5629 3.60156Z" fill="#C2CCDE" fill-opacity="0.25"/>
<path d="M11.5629 3.60156L11.621 2.60326C11.5823 2.601 11.5434 2.601 11.5047 2.60326L11.5629 3.60156ZM12.4691 3.65438L12.6428 2.66957C12.6046 2.66284 12.566 2.65833 12.5273 2.65607L12.4691 3.65438ZM13.364 3.81217L13.6504 2.85407C13.6134 2.843 13.5757 2.83408 13.5376 2.82736L13.364 3.81217ZM14.2362 4.07294L14.6311 3.15423C14.5957 3.13903 14.5595 3.12588 14.5226 3.11485L14.2362 4.07294ZM15.0748 4.43342L15.5723 3.56598C15.5391 3.54694 15.5049 3.52982 15.4697 3.51471L15.0748 4.43342ZM15.8692 4.88908L16.4621 4.08383C16.4315 4.06131 16.3997 4.04054 16.3667 4.02164L15.8692 4.88908ZM16.6095 5.43418L17.2895 4.70097C17.2618 4.67533 17.2328 4.65128 17.2024 4.62893L16.6095 5.43418ZM17.2863 6.06187L18.044 5.40934C18.0196 5.38101 17.9937 5.35407 17.9663 5.32865L17.2863 6.06187ZM17.8911 6.76425L18.7166 6.19985C18.6957 6.16924 18.6731 6.13982 18.6489 6.11172L17.8911 6.76425ZM18.4164 7.53249L19.299 7.06244C19.2817 7.02996 19.2626 6.99847 19.2419 6.9681L18.4164 7.53249ZM18.8554 8.35694L19.7842 7.98625C19.7706 7.95231 19.7552 7.91914 19.7381 7.88689L18.8554 8.35694ZM19.2028 9.22722L20.1663 8.95973C20.1566 8.92472 20.145 8.89027 20.1315 8.85652L19.2028 9.22722ZM19.454 10.1324L20.4409 9.97082C20.4351 9.93512 20.4273 9.89976 20.4176 9.8649L19.454 10.1324ZM19.6061 11.0611L20.6046 11.007C20.6027 10.971 20.5988 10.9351 20.593 10.8995L19.6061 11.0611ZM19.657 12.0016L20.6555 12.0556C20.6575 12.0196 20.6575 11.9835 20.6555 11.9475L19.657 12.0016ZM19.6061 12.9421L20.593 13.1036C20.5988 13.068 20.6027 13.0321 20.6046 12.9961L19.6061 12.9421ZM19.454 13.8707L20.4176 14.1382C20.4273 14.1034 20.4351 14.068 20.4409 14.0323L19.454 13.8707ZM19.2028 14.7759L20.1315 15.1466C20.145 15.1129 20.1566 15.0784 20.1663 15.0434L19.2028 14.7759ZM18.8554 15.6462L19.7381 16.1162C19.7552 16.084 19.7706 16.0508 19.7842 16.0169L18.8554 15.6462ZM18.4164 16.4706L19.2419 17.035C19.2626 17.0047 19.2817 16.9732 19.299 16.9407L18.4164 16.4706ZM17.8911 17.2389L18.6489 17.8914C18.6731 17.8633 18.6957 17.8339 18.7166 17.8033L17.8911 17.2389ZM17.2863 17.9413L17.9663 18.6745C17.9937 18.649 18.0196 18.6221 18.044 18.5938L17.2863 17.9413ZM16.6095 18.5689L17.2024 19.3742C17.2328 19.3518 17.2618 19.3278 17.2895 19.3022L16.6095 18.5689ZM15.8692 19.114L16.3667 19.9815C16.3997 19.9626 16.4315 19.9418 16.4621 19.9193L15.8692 19.114ZM15.0748 19.5697L15.4697 20.4884C15.5049 20.4733 15.5391 20.4562 15.5723 20.4371L15.0748 19.5697ZM14.2362 19.9302L14.5226 20.8883C14.5595 20.8772 14.5957 20.8641 14.6311 20.8489L14.2362 19.9302ZM13.364 20.191L13.5376 21.1758C13.5757 21.169 13.6134 21.1601 13.6504 21.149L13.364 20.191ZM12.4691 20.3487L12.5273 21.347C12.566 21.3448 12.6046 21.3403 12.6428 21.3336L12.4691 20.3487ZM11.5629 20.4016L11.5047 21.3999C11.5434 21.4021 11.5823 21.4021 11.6211 21.3999L11.5629 20.4016ZM10.6566 20.3487L10.483 21.3336C10.5212 21.3403 10.5597 21.3448 10.5984 21.347L10.6566 20.3487ZM9.76176 20.191L9.4753 21.149C9.51236 21.1601 9.55002 21.169 9.58811 21.1758L9.76176 20.191ZM8.88955 19.9302L8.49463 20.8489C8.52999 20.8641 8.56621 20.8772 8.6031 20.8883L8.88955 19.9302ZM8.05096 19.5697L7.55343 20.4371C7.58662 20.4562 7.62088 20.4733 7.65604 20.4884L8.05096 19.5697ZM7.25654 19.114L6.66359 19.9193C6.69419 19.9418 6.72604 19.9626 6.759 19.9815L7.25654 19.114ZM6.51627 18.5689L5.83627 19.3022C5.86391 19.3278 5.89297 19.3518 5.92333 19.3742L6.51627 18.5689ZM5.83946 17.9413L5.08169 18.5938C5.10609 18.6221 5.13205 18.649 5.15946 18.6745L5.83946 17.9413ZM5.23463 17.2389L4.40913 17.8033C4.43005 17.8339 4.45267 17.8633 4.47686 17.8914L5.23463 17.2389ZM4.70938 16.4706L3.82674 16.9407C3.84404 16.9732 3.86311 17.0047 3.88388 17.035L4.70938 16.4706ZM4.27032 15.6462L3.34156 16.0169C3.35511 16.0508 3.37051 16.084 3.38768 16.1162L4.27032 15.6462ZM3.92297 14.7759L2.9594 15.0434C2.96912 15.0784 2.98074 15.1129 2.99421 15.1466L3.92297 14.7759ZM3.67169 13.8707L2.68483 14.0323C2.69067 14.068 2.69845 14.1034 2.70813 14.1382L3.67169 13.8707ZM3.51964 12.9421L2.5211 12.9961C2.52305 13.0321 2.52695 13.068 2.53278 13.1036L3.51964 12.9421ZM3.46875 12.0016L2.47021 11.9475C2.46826 11.9835 2.46826 12.0196 2.47021 12.0556L3.46875 12.0016ZM3.51964 11.0611L2.53278 10.8995C2.52695 10.9351 2.52305 10.971 2.5211 11.007L3.51964 11.0611ZM3.67169 10.1324L2.70813 9.8649C2.69845 9.89976 2.69067 9.93511 2.68483 9.97082L3.67169 10.1324ZM3.92297 9.22722L2.99421 8.85652C2.98074 8.89027 2.96912 8.92472 2.9594 8.95973L3.92297 9.22722ZM4.27032 8.35694L3.38768 7.88689C3.37051 7.91914 3.35511 7.95231 3.34156 7.98625L4.27032 8.35694ZM4.70938 7.53249L3.88388 6.9681C3.86311 6.99847 3.84404 7.02996 3.82674 7.06244L4.70938 7.53249ZM5.23463 6.76425L4.47686 6.11172C4.45267 6.13982 4.43006 6.16924 4.40913 6.19985L5.23463 6.76425ZM5.83946 6.06187L5.15946 5.32865C5.13205 5.35407 5.10609 5.38101 5.08169 5.40934L5.83946 6.06187ZM6.51627 5.43418L5.92332 4.62893C5.89297 4.65128 5.86391 4.67533 5.83627 4.70097L6.51627 5.43418ZM7.25654 4.88908L6.759 4.02164C6.72604 4.04054 6.69419 4.06131 6.66359 4.08383L7.25654 4.88908ZM8.05096 4.43342L7.65604 3.51471C7.62088 3.52982 7.58662 3.54694 7.55343 3.56598L8.05096 4.43342ZM8.88955 4.07294L8.6031 3.11485C8.56621 3.12588 8.52999 3.13903 8.49463 3.15423L8.88955 4.07294ZM9.76176 3.81217L9.58811 2.82736C9.55002 2.83408 9.51236 2.843 9.4753 2.85407L9.76176 3.81217ZM10.6566 3.65438L10.5984 2.65607C10.5597 2.65833 10.5212 2.66284 10.483 2.66957L10.6566 3.65438ZM11.5047 4.59987L12.4109 4.65269L12.5273 2.65607L11.621 2.60326L11.5047 4.59987ZM12.2955 4.63919L13.1903 4.79698L13.5376 2.82736L12.6428 2.66957L12.2955 4.63919ZM13.0775 4.77026L13.9497 5.03104L14.5226 3.11485L13.6504 2.85407L13.0775 4.77026ZM13.8413 4.99166L14.6798 5.35214L15.4697 3.51471L14.6311 3.15423L13.8413 4.99166ZM14.5772 5.30087L15.3717 5.75652L16.3667 4.02164L15.5723 3.56598L14.5772 5.30087ZM15.2763 5.69432L16.0165 6.23942L17.2024 4.62893L16.4621 4.08383L15.2763 5.69432ZM15.9295 6.16739L16.6063 6.79508L17.9663 5.32865L17.2895 4.70097L15.9295 6.16739ZM16.5285 6.71439L17.1333 7.41677L18.6489 6.11172L18.044 5.40934L16.5285 6.71439ZM17.0656 7.32864L17.5908 8.09689L19.2419 6.9681L18.7166 6.19985L17.0656 7.32864ZM17.5337 8.00255L17.9728 8.82699L19.7381 7.88689L19.299 7.06244L17.5337 8.00255ZM17.9267 8.72763L18.274 9.59791L20.1315 8.85652L19.7842 7.98625L17.9267 8.72763ZM18.2392 9.49471L18.4905 10.3999L20.4176 9.8649L20.1663 8.95973L18.2392 9.49471ZM18.4672 10.294L18.6192 11.2226L20.593 10.8995L20.4409 9.97082L18.4672 10.294ZM18.6076 11.1151L18.6584 12.0556L20.6555 11.9475L20.6046 11.007L18.6076 11.1151ZM18.6584 11.9475L18.6076 12.888L20.6046 12.9961L20.6555 12.0556L18.6584 11.9475ZM18.6192 12.7805L18.4672 13.7092L20.4409 14.0323L20.593 13.1036L18.6192 12.7805ZM18.4905 13.6032L18.2392 14.5084L20.1663 15.0434L20.4176 14.1382L18.4905 13.6032ZM18.274 14.4052L17.9267 15.2755L19.7842 16.0169L20.1315 15.1466L18.274 14.4052ZM17.9728 15.1761L17.5337 16.0006L19.299 16.9407L19.7381 16.1162L17.9728 15.1761ZM17.5908 15.9062L17.0656 16.6745L18.7166 17.8033L19.2419 17.035L17.5908 15.9062ZM17.1333 16.5864L16.5285 17.2887L18.044 18.5938L18.6489 17.8914L17.1333 16.5864ZM16.6063 17.208L15.9295 17.8357L17.2895 19.3022L17.9663 18.6745L16.6063 17.208ZM16.0165 17.7637L15.2763 18.3088L16.4621 19.9193L17.2024 19.3742L16.0165 17.7637ZM15.3717 18.2466L14.5772 18.7023L15.5723 20.4371L16.3667 19.9815L15.3717 18.2466ZM14.6798 18.651L13.8413 19.0115L14.6311 20.8489L15.4697 20.4884L14.6798 18.651ZM13.9497 18.9721L13.0775 19.2329L13.6504 21.149L14.5226 20.8883L13.9497 18.9721ZM13.1903 19.2061L12.2955 19.3639L12.6428 21.3336L13.5376 21.1758L13.1903 19.2061ZM12.4109 19.3504L11.5047 19.4033L11.6211 21.3999L12.5273 21.347L12.4109 19.3504ZM11.6211 19.4033L10.7148 19.3504L10.5984 21.347L11.5047 21.3999L11.6211 19.4033ZM10.8303 19.3639L9.93541 19.2061L9.58811 21.1758L10.483 21.3336L10.8303 19.3639ZM10.0482 19.2329L9.176 18.9721L8.6031 20.8883L9.4753 21.149L10.0482 19.2329ZM9.28447 19.0115L8.44589 18.651L7.65604 20.4884L8.49463 20.8489L9.28447 19.0115ZM8.5485 18.7023L7.75407 18.2466L6.759 19.9815L7.55343 20.4371L8.5485 18.7023ZM7.84948 18.3088L7.10921 17.7637L5.92333 19.3742L6.66359 19.9193L7.84948 18.3088ZM7.19627 17.8357L6.51946 17.208L5.15946 18.6745L5.83627 19.3022L7.19627 17.8357ZM6.59723 17.2887L5.9924 16.5864L4.47686 17.8914L5.08169 18.5938L6.59723 17.2887ZM6.06014 16.6745L5.53489 15.9062L3.88388 17.035L4.40913 17.8033L6.06014 16.6745ZM5.59202 16.0006L5.15296 15.1761L3.38768 16.1162L3.82674 16.9407L5.59202 16.0006ZM5.19907 15.2755L4.85172 14.4052L2.99421 15.1466L3.34156 16.0169L5.19907 15.2755ZM4.88653 14.5084L4.63525 13.6032L2.70813 14.1382L2.9594 15.0434L4.88653 14.5084ZM4.65855 13.7092L4.50651 12.7805L2.53278 13.1036L2.68483 14.0323L4.65855 13.7092ZM4.51818 12.888L4.46729 11.9475L2.47021 12.0556L2.5211 12.9961L4.51818 12.888ZM4.46729 12.0556L4.51818 11.1151L2.5211 11.007L2.47021 11.9475L4.46729 12.0556ZM4.50651 11.2226L4.65855 10.294L2.68483 9.97082L2.53278 10.8995L4.50651 11.2226ZM4.63525 10.3999L4.88653 9.49471L2.9594 8.95973L2.70813 9.8649L4.63525 10.3999ZM4.85172 9.59791L5.19907 8.72763L3.34156 7.98625L2.99421 8.85652L4.85172 9.59791ZM5.15296 8.82699L5.59202 8.00255L3.82674 7.06244L3.38768 7.88689L5.15296 8.82699ZM5.53489 8.09689L6.06014 7.32864L4.40913 6.19985L3.88388 6.9681L5.53489 8.09689ZM5.9924 7.41677L6.59723 6.71439L5.08169 5.40934L4.47686 6.11172L5.9924 7.41677ZM6.51946 6.79508L7.19627 6.16739L5.83627 4.70097L5.15946 5.32865L6.51946 6.79508ZM7.10921 6.23942L7.84948 5.69432L6.66359 4.08383L5.92332 4.62893L7.10921 6.23942ZM7.75407 5.75652L8.5485 5.30087L7.55343 3.56598L6.759 4.02164L7.75407 5.75652ZM8.44589 5.35214L9.28447 4.99166L8.49463 3.15423L7.65604 3.51471L8.44589 5.35214ZM9.176 5.03104L10.0482 4.77026L9.4753 2.85407L8.6031 3.11485L9.176 5.03104ZM9.93541 4.79698L10.8303 4.63919L10.483 2.66957L9.58811 2.82736L9.93541 4.79698ZM10.7148 4.65269L11.621 4.59987L11.5047 2.60326L10.5984 2.65607L10.7148 4.65269Z" fill="#7647EB"/>
<path d="M7.29376 12.0536L9.44957 14.312C9.83091 14.7115 10.4492 14.7115 10.8305 14.312L15.8326 9.0717" stroke="#7647EB" stroke-width="2" stroke-linecap="round" stroke-linejoin="round"/>
</svg>
