<svg width="34" height="37" viewBox="0 0 34 37" fill="none" xmlns="http://www.w3.org/2000/svg">
<path fill-rule="evenodd" clip-rule="evenodd" d="M0 20.722C0.0620826 13.1653 5.47639 6.6983 12.9437 5.43891C18.1752 4.55664 22.723 6.04663 26.5698 9.69215C26.9801 10.0808 27.1386 10.5474 26.9601 11.09C26.7985 11.5808 26.4368 11.872 25.9282 11.9564C25.4462 12.0363 25.0675 11.8292 24.7297 11.4991C23.0184 9.82557 20.9959 8.7131 18.6734 8.13507C11.5354 6.35897 4.17496 11.1042 2.86197 18.3324C1.58137 25.3802 5.95454 32.011 12.9699 33.4752C17.4202 34.4037 21.3425 33.1898 24.6722 30.0934C25.0363 29.7549 25.4134 29.4965 25.9316 29.5837C26.4395 29.6689 26.8004 29.9615 26.9616 30.4524C27.1336 30.9772 26.9878 31.4338 26.5972 31.8209C25.1384 33.2662 23.4618 34.3883 21.5627 35.1653C12.9541 38.6851 3.25144 34.005 0.655924 25.0786C0.471604 24.4447 0.326225 23.7942 0.232137 23.1417C0.116455 22.3404 0.0740364 21.5291 0 20.722Z" fill="#DC3545"/>
<path fill-rule="evenodd" clip-rule="evenodd" d="M29.5363 20.2162C27.6681 20.2162 25.8407 20.2162 23.9696 20.2162C23.9696 20.0752 23.9696 19.9502 23.9696 19.8252C23.9696 18.8523 23.9757 17.8794 23.9671 16.9064C23.9607 16.2206 23.4325 15.7193 22.7507 15.7307C22.0817 15.7417 21.5797 16.2367 21.5772 16.9101C21.5711 18.3636 21.5718 19.8172 21.5768 21.2707C21.5793 22.0086 22.0789 22.4649 22.8842 22.4659C24.9566 22.4692 27.0289 22.4672 29.1009 22.4672C29.2348 22.4672 29.3684 22.4672 29.502 22.4672C29.5202 22.4966 29.5385 22.526 29.556 22.5554C29.0665 22.9999 28.5752 23.4431 28.0875 23.8896C27.772 24.1787 27.614 24.5263 27.7104 24.9401C27.8078 25.3602 28.0767 25.6513 28.5247 25.7843C29.0078 25.928 29.4157 25.797 29.7627 25.4755C30.6801 24.6242 31.5929 23.769 32.5086 22.9161C32.7843 22.6594 33.0676 22.4097 33.3383 22.149C33.8289 21.6771 33.8325 21.0147 33.3337 20.5471C32.1551 19.4418 30.9723 18.3416 29.7845 17.2453C29.2552 16.757 28.5186 16.75 28.0377 17.2113C27.5675 17.6624 27.5876 18.3316 28.095 18.8168C28.5512 19.253 29.016 19.6811 29.4762 20.1136C29.4934 20.1287 29.5002 20.1524 29.5363 20.2162Z" fill="#DC3545"/>
<path fill-rule="evenodd" clip-rule="evenodd" d="M16.9126 16.2354C16.9126 17.6953 16.9053 19.1552 16.9169 20.6151C16.9203 21.0774 16.77 21.4488 16.443 21.7746C14.336 23.8731 12.2364 25.9793 10.1317 28.0808C9.53676 28.6747 8.7613 28.7059 8.22453 28.1699C7.68892 27.6355 7.71824 26.8585 8.31323 26.2615C10.2312 24.3374 12.1585 22.422 14.0672 20.4882C14.2157 20.3378 14.3248 20.0753 14.326 19.8639C14.3433 17.1605 14.3337 14.457 14.3395 11.7535C14.3414 10.7652 15.2445 10.1193 16.109 10.4875C16.6466 10.7166 16.9122 11.1458 16.9122 11.7342C16.9126 13.2346 16.9126 14.735 16.9126 16.2354Z" fill="#DC3545"/>
<path fill-rule="evenodd" clip-rule="evenodd" d="M15.6372 2.57562C14.5429 2.57562 13.4489 2.57755 12.3546 2.57523C11.5186 2.57331 10.9355 2.04888 10.9297 1.29964C10.9236 0.534215 11.5116 0.00207663 12.3723 0.00130541C14.5475 -0.000237012 16.7223 -0.000622618 18.8971 0.00130541C19.7362 0.00207663 20.3146 0.523425 20.3212 1.27574C20.3277 2.04233 19.7405 2.57369 18.8794 2.57523C17.7986 2.57716 16.7177 2.57562 15.6372 2.57562Z" fill="#DC3545"/>
</svg>
