<svg width="42" height="42" viewBox="0 0 42 42" fill="none" xmlns="http://www.w3.org/2000/svg">
<path d="M35.8235 0H6.1765C2.76978 0 0 2.77103 0 6.1765V35.8236C0 39.229 2.76978 42 6.1765 42H35.8236C39.2302 42 42 39.229 42 35.8235V6.1765C42 2.77103 39.2302 0 35.8235 0ZM31.0801 13.7535L33.2202 12.5182C33.8089 12.1768 34.5664 12.3794 34.9066 12.9706C35.2493 13.5617 35.0465 14.317 34.4554 14.6583L32.3154 15.8935C31.719 16.2359 30.9648 16.0273 30.6288 15.4411C30.2864 14.8501 30.4891 14.0949 31.0801 13.7535ZM19.7648 6.1765C19.7648 5.49366 20.3173 4.94126 21 4.94126C21.6827 4.94126 22.2352 5.49379 22.2352 6.1765V8.64713C22.2352 9.32998 21.6827 9.88238 21 9.88238C20.3173 9.88238 19.7648 9.32984 19.7648 8.64713V6.1765ZM12.9706 7.09216C13.5593 6.75074 14.3169 6.95336 14.657 7.54442L15.8923 9.68448C16.2348 10.2755 16.0322 11.0307 15.4411 11.3721C14.8448 11.7144 14.0906 11.5059 13.7546 10.9197L12.5193 8.77967C12.1768 8.18861 12.3794 7.43344 12.9706 7.09216ZM4.94112 21C4.94112 20.3172 5.49366 19.7648 6.17636 19.7648H8.64699C9.32984 19.7648 9.88224 20.3173 9.88224 21C9.88224 21.6827 9.3297 22.2352 8.64699 22.2352H6.17636C5.49366 22.2352 4.94112 21.6828 4.94112 21ZM10.9199 28.2464L8.77981 29.4818C8.18346 29.824 7.42927 29.6156 7.09341 29.0294C6.75074 28.4383 6.9535 27.683 7.54456 27.3417L9.68462 26.1065C10.2733 25.7651 11.0308 25.9677 11.3712 26.5589C11.7136 27.1499 11.5109 27.9051 10.9199 28.2464ZM11.3734 15.4424C11.0374 16.0287 10.2832 16.237 9.68698 15.8948L7.54456 14.6583C6.9535 14.3169 6.75074 13.5617 7.09341 12.9706C7.43358 12.3807 8.19111 12.1804 8.77981 12.5182L10.9222 13.7547C11.5133 14.096 11.7161 14.8513 11.3734 15.4424ZM15.8924 32.3155L14.6572 34.4556C14.3212 35.0419 13.567 35.2502 12.9708 34.9078C12.3797 34.5664 12.1769 33.8113 12.5196 33.2202L13.7549 31.0801C14.0927 30.4902 14.8502 30.2899 15.4414 30.6277C16.0323 30.9693 16.2349 31.7243 15.8924 32.3155ZM22.2352 35.8235C22.2352 36.5063 21.6827 37.0587 21 37.0587C20.3173 37.0587 19.7648 36.5062 19.7648 35.8235V33.3529C19.7648 32.6702 20.3173 32.1176 21 32.1176C21.6827 32.1176 22.2352 32.6702 22.2352 33.3529V35.8235ZM25.7746 15.1998L22.0688 21.6176C21.7325 22.206 20.9768 22.4113 20.3824 22.0699L13.9646 18.3653C13.3735 18.0238 13.1708 17.2687 13.5134 16.6776C13.8512 16.0877 14.6088 15.8899 15.1998 16.2252L20.5487 19.3122L23.637 13.9644C23.9748 13.3721 24.7323 13.1767 25.3235 13.512C25.9147 13.8536 26.1173 14.6088 25.7746 15.1998ZM29.0294 34.9078C28.433 35.2502 27.6788 35.0416 27.343 34.4556L26.1077 32.3155C25.7652 31.7245 25.9678 30.9693 26.5589 30.6279C27.1476 30.2865 27.9051 30.4891 28.2454 31.0803L29.4807 33.2203C29.8232 33.8114 29.6206 34.5666 29.0294 34.9078ZM29.4805 8.77981L28.2428 10.9222C27.9022 11.5119 27.1501 11.7154 26.5564 11.3745C25.9653 11.0331 25.7626 10.2768 26.1052 9.68684L27.343 7.54442C27.6855 6.95211 28.4432 6.75421 29.0294 7.09216C29.6206 7.43344 29.8232 8.18986 29.4805 8.77981ZM34.9067 29.0294C34.5707 29.6157 33.8165 29.824 33.2203 29.4818L31.0803 28.2464C30.4892 27.905 30.2865 27.1498 30.6291 26.5587C30.9693 25.97 31.7268 25.7685 32.3157 26.1063L34.4557 27.3416C35.0466 27.6831 35.2493 28.4383 34.9067 29.0294ZM35.8235 22.2352H33.3529C32.67 22.2352 32.1176 21.6827 32.1176 21C32.1176 20.3173 32.6702 19.7648 33.3529 19.7648H35.8235C36.5063 19.7648 37.0587 20.3173 37.0587 21C37.0587 21.6827 36.5063 22.2352 35.8235 22.2352Z" fill="white"/>
</svg>
