<svg width="31" height="24" viewBox="0 0 31 24" fill="none" xmlns="http://www.w3.org/2000/svg">
<path d="M11.0007 1.83398C16.0634 1.83398 20.1673 5.9379 20.1673 11.0007C20.1673 16.0634 16.0634 20.1673 11.0007 20.1673C5.9379 20.1673 1.83398 16.0634 1.83398 11.0007C1.83398 5.9379 5.9379 1.83398 11.0007 1.83398ZM11.0007 3.66732C9.05573 3.66732 7.19047 4.43993 5.8152 5.8152C4.43993 7.19047 3.66732 9.05573 3.66732 11.0007C3.66732 12.9456 4.43993 14.8108 5.8152 16.1861C7.19047 17.5614 9.05573 18.334 11.0007 18.334C12.9456 18.334 14.8108 17.5614 16.1861 16.1861C17.5614 14.8108 18.334 12.9456 18.334 11.0007C18.334 9.05573 17.5614 7.19047 16.1861 5.8152C14.8108 4.43993 12.9456 3.66732 11.0007 3.66732ZM11.0007 5.50065C11.2252 5.50068 11.4419 5.58311 11.6097 5.73231C11.7774 5.8815 11.8846 6.08709 11.9109 6.31007L11.9173 6.41732V10.6212L14.3987 13.1026C14.5631 13.2675 14.6586 13.4889 14.6657 13.7217C14.6728 13.9545 14.591 14.1812 14.437 14.3559C14.283 14.5306 14.0682 14.6401 13.8364 14.6622C13.6045 14.6843 13.373 14.6173 13.1887 14.4748L13.1026 14.3987L10.3526 11.6487C10.2101 11.5061 10.1186 11.3206 10.0922 11.1207L10.084 11.0007V6.41732C10.084 6.1742 10.1806 5.94104 10.3525 5.76914C10.5244 5.59723 10.7575 5.50065 11.0007 5.50065Z" fill="#6C6C6C" stroke="#6C6C6C"/>
<path d="M21.084 14.9923L15.3407 19.8156L14.3761 18.667L20.1194 13.8436L16.743 9.82333L26.345 9.59464L24.4604 19.0126L21.084 14.9923Z" fill="#3A3E3F"/>
</svg>
