<svg width="33" height="37" viewBox="0 0 33 37" fill="none" xmlns="http://www.w3.org/2000/svg">
<path fill-rule="evenodd" clip-rule="evenodd" d="M0 20.722C0.0620826 13.1653 5.47639 6.6983 12.9437 5.43891C18.1752 4.55664 22.723 6.04663 26.5698 9.69215C26.9801 10.0808 27.1386 10.5474 26.9601 11.09C26.7985 11.5808 26.4368 11.872 25.9282 11.9564C25.4462 12.0363 25.0675 11.8292 24.7297 11.4991C23.0184 9.82557 20.9959 8.7131 18.6734 8.13507C11.5354 6.35897 4.17496 11.1042 2.86197 18.3324C1.58137 25.3802 5.95454 32.011 12.9699 33.4752C17.4202 34.4037 21.3425 33.1898 24.6722 30.0934C25.0363 29.7549 25.4134 29.4965 25.9316 29.5837C26.4395 29.6689 26.8004 29.9615 26.9616 30.4524C27.1336 30.9772 26.9878 31.4338 26.5972 31.8209C25.1384 33.2662 23.4618 34.3883 21.5627 35.1653C12.9541 38.6851 3.25144 34.005 0.655924 25.0786C0.471604 24.4447 0.326225 23.7942 0.232137 23.1417C0.116455 22.3404 0.0740364 21.5291 0 20.722Z" fill="#33CC32"/>
<path fill-rule="evenodd" clip-rule="evenodd" d="M24.6975 20.0853C26.5148 20.0853 28.2923 20.0853 30.1123 20.0853C30.1123 19.9383 30.1123 19.808 30.1123 19.6778C30.1123 18.6638 30.1064 17.6498 30.1148 16.6358C30.121 15.921 30.6348 15.3985 31.298 15.4104C31.9487 15.4218 32.4371 15.9377 32.4395 16.6396C32.4455 18.1545 32.4447 19.6694 32.4399 21.1843C32.4374 21.9534 31.9515 22.4289 31.1681 22.4299C29.1523 22.4334 27.1365 22.4313 25.1211 22.4313C24.9908 22.4313 24.8609 22.4313 24.731 22.4313C24.7132 22.462 24.6954 22.4926 24.6784 22.5233C25.1545 22.9866 25.6324 23.4484 26.1069 23.9138C26.4137 24.2151 26.5674 24.5774 26.4737 25.0086C26.3789 25.4465 26.1173 25.7499 25.6816 25.8885C25.2117 26.0383 24.8149 25.9017 24.4774 25.5667C23.5849 24.6795 22.697 23.7881 21.8064 22.8991C21.5382 22.6316 21.2626 22.3714 20.9993 22.0997C20.5221 21.6079 20.5186 20.9175 21.0038 20.4302C22.1502 19.2782 23.3007 18.1315 24.4561 16.989C24.971 16.4801 25.6875 16.4728 26.1553 16.9535C26.6126 17.4237 26.5931 18.1211 26.0995 18.6269C25.6558 19.0814 25.2036 19.5276 24.756 19.9784C24.7393 19.994 24.7327 20.0188 24.6975 20.0853Z" fill="#33CC32"/>
<path fill-rule="evenodd" clip-rule="evenodd" d="M16.9126 16.2354C16.9126 17.6953 16.9053 19.1552 16.9169 20.6151C16.9203 21.0774 16.77 21.4488 16.443 21.7746C14.336 23.8731 12.2364 25.9793 10.1317 28.0808C9.53676 28.6747 8.7613 28.7059 8.22453 28.1699C7.68892 27.6355 7.71824 26.8585 8.31323 26.2615C10.2312 24.3374 12.1585 22.422 14.0672 20.4882C14.2157 20.3378 14.3248 20.0753 14.326 19.8639C14.3433 17.1605 14.3337 14.457 14.3395 11.7535C14.3414 10.7652 15.2445 10.1193 16.109 10.4875C16.6466 10.7166 16.9122 11.1458 16.9122 11.7342C16.9126 13.2346 16.9126 14.735 16.9126 16.2354Z" fill="#33CC32"/>
<path fill-rule="evenodd" clip-rule="evenodd" d="M15.6372 2.57562C14.5429 2.57562 13.4489 2.57755 12.3546 2.57523C11.5186 2.57331 10.9355 2.04888 10.9297 1.29964C10.9236 0.534215 11.5116 0.00207663 12.3723 0.00130541C14.5475 -0.000237012 16.7223 -0.000622618 18.8971 0.00130541C19.7362 0.00207663 20.3146 0.523425 20.3212 1.27574C20.3277 2.04233 19.7405 2.57369 18.8794 2.57523C17.7986 2.57716 16.7177 2.57562 15.6372 2.57562Z" fill="#33CC32"/>
</svg>
