<svg width="26" height="26" viewBox="0 0 26 26" fill="none" xmlns="http://www.w3.org/2000/svg">
<circle cx="15.5" cy="10.5" r="9" stroke="#6C6C6C" stroke-width="3"/>
<g clip-path="url(#clip0_1014_5359)">
<path fill-rule="evenodd" clip-rule="evenodd" d="M9.78567 4.78567C9.90872 4.66278 10.0755 4.59375 10.2494 4.59375C10.4233 4.59375 10.5901 4.66278 10.7132 4.78567L21.2132 15.2857C21.2777 15.3458 21.3294 15.4182 21.3652 15.4987C21.4011 15.5792 21.4204 15.6661 21.4219 15.7542C21.4235 15.8423 21.4073 15.9299 21.3743 16.0116C21.3413 16.0933 21.2921 16.1675 21.2298 16.2298C21.1675 16.2921 21.0933 16.3413 21.0116 16.3743C20.9299 16.4073 20.8423 16.4235 20.7542 16.4219C20.6661 16.4204 20.5792 16.4011 20.4987 16.3652C20.4182 16.3294 20.3458 16.2777 20.2857 16.2132L9.78567 5.71317C9.66278 5.59013 9.59375 5.42333 9.59375 5.24942C9.59375 5.07552 9.66278 4.90872 9.78567 4.78567Z" fill="#D5213C"/>
<path fill-rule="evenodd" clip-rule="evenodd" d="M21.213 4.78567C21.3359 4.90872 21.4049 5.07552 21.4049 5.24942C21.4049 5.42333 21.3359 5.59013 21.213 5.71317L10.713 16.2132C10.5886 16.3291 10.4241 16.3922 10.254 16.3892C10.084 16.3862 9.92182 16.3173 9.80159 16.1971C9.68135 16.0769 9.61248 15.9146 9.60948 15.7446C9.60648 15.5746 9.66959 15.4101 9.78551 15.2857L20.2855 4.78567C20.4086 4.66278 20.5753 4.59375 20.7493 4.59375C20.9232 4.59375 21.09 4.66278 21.213 4.78567Z" fill="#D5213C"/>
</g>
<defs>
<clipPath id="clip0_1014_5359">
<rect width="24" height="24" fill="white" transform="translate(0 2)"/>
</clipPath>
</defs>
</svg>
