<svg width="22" height="22" viewBox="0 0 22 22" xmlns="http://www.w3.org/2000/svg">
<path d="M10.0781 4.29V7.84667C10.0781 8.14116 10.02 8.43276 9.90699 8.70473C9.79402 8.97669 9.62844 9.22367 9.41978 9.43148C9.21111 9.63929 8.96346 9.80385 8.69104 9.91572C8.41861 10.0276 8.12678 10.0845 7.83229 10.0833H4.29395C4.00026 10.0851 3.70922 10.0276 3.4383 9.91417C3.16737 9.80076 2.92213 9.63381 2.71729 9.42333C2.50931 9.21709 2.34461 8.97139 2.23285 8.70064C2.12109 8.4299 2.06452 8.13956 2.06645 7.84667V4.29917C2.06645 3.70755 2.30084 3.14003 2.71831 2.72084C3.13579 2.30164 3.70234 2.06492 4.29395 2.0625H7.84145C8.13485 2.06278 8.42527 2.12126 8.69591 2.23455C8.96654 2.34784 9.21202 2.51369 9.41812 2.7225C9.62665 2.9269 9.79241 3.17077 9.90572 3.43989C10.019 3.70901 10.0776 3.998 10.0781 4.29ZM19.9323 4.29917V7.84667C19.9275 8.43682 19.6916 9.00158 19.2752 9.41975C18.8587 9.83792 18.2949 10.0762 17.7048 10.0833H14.1481C13.5552 10.0797 12.9868 9.84642 12.5623 9.4325C12.3549 9.22395 12.1906 8.97653 12.0789 8.70441C11.9672 8.43229 11.9103 8.14081 11.9115 7.84667V4.29917C11.9107 4.00562 11.9687 3.7149 12.0821 3.44412C12.1954 3.17334 12.3618 2.92798 12.5715 2.7225C12.7776 2.51369 13.023 2.34784 13.2937 2.23455C13.5643 2.12126 13.8547 2.06278 14.1481 2.0625H17.6956C18.2873 2.06729 18.8535 2.30448 19.2719 2.7229C19.6903 3.14132 19.9275 3.70745 19.9323 4.29917ZM19.9323 14.1533V17.7008C19.9275 18.291 19.6916 18.8557 19.2752 19.2739C18.8587 19.6921 18.2949 19.9303 17.7048 19.9375H14.1481C13.5514 19.9436 12.9759 19.7166 12.544 19.305C12.3357 19.0971 12.1709 18.8498 12.0592 18.5775C11.9474 18.3052 11.891 18.0135 11.8931 17.7192V14.1717C11.8924 13.8781 11.9504 13.5874 12.0637 13.3166C12.1771 13.0458 12.3435 12.8005 12.5531 12.595C12.7592 12.3862 13.0047 12.2203 13.2753 12.1071C13.546 11.9938 13.8364 11.9353 14.1298 11.935H17.6773C18.269 11.9398 18.8351 12.177 19.2536 12.5954C19.672 13.0138 19.9092 13.5799 19.914 14.1717L19.9323 14.1533ZM10.0781 14.1625V17.71C10.0709 18.3017 9.8314 18.8669 9.41127 19.2836C8.99113 19.7003 8.42403 19.9351 7.83229 19.9375H4.29395C4.0011 19.9387 3.71089 19.8819 3.44009 19.7704C3.16929 19.6589 2.92325 19.4949 2.71617 19.2878C2.50909 19.0807 2.34506 18.8347 2.23354 18.5639C2.12203 18.2931 2.06524 18.0029 2.06645 17.71V14.1625C2.06882 13.5708 2.30368 13.0037 2.72039 12.5835C3.1371 12.1634 3.70225 11.9239 4.29395 11.9167H7.84145C8.43564 11.9227 9.00423 12.1594 9.42729 12.5767C9.84537 12.9984 10.0794 13.5686 10.0781 14.1625Z" fill="currentColor"/>
</svg>
