<svg width="24" height="24" viewBox="0 0 24 24" fill="none" xmlns="http://www.w3.org/2000/svg">
<g clip-path="url(#clip0_1494_5945)">
<path d="M17.75 17.5C19.8211 17.5 21.5 15.8211 21.5 13.75C21.5 11.6789 19.8211 10 17.75 10C15.6789 10 14 11.6789 14 13.75C14 15.8211 15.6789 17.5 17.75 17.5Z" fill="white" stroke="#A0A0A0"/>
<path d="M17.334 12.5V14.1667H19.0007" stroke="#A0A0A0" stroke-linecap="round" stroke-linejoin="round"/>
<path d="M14 13H6C4.93913 13 3.92172 13.4917 3.17157 14.3668C2.42143 15.242 2 16.429 2 17.6667C2 18.2855 2.21071 18.879 2.58579 19.3166C2.96086 19.7542 3.46957 20 4 20H16C16.5304 20 17.0391 19.7542 17.4142 19.3166C17.7893 18.879 18 18.2855 18 17.6667" stroke="#A0A0A0" stroke-linejoin="round"/>
<path d="M10 10C11.6569 10 13 8.65685 13 7C13 5.34315 11.6569 4 10 4C8.34315 4 7 5.34315 7 7C7 8.65685 8.34315 10 10 10Z" stroke="#A0A0A0"/>
</g>
<defs>
<clipPath id="clip0_1494_5945">
<rect width="24" height="24" fill="white"/>
</clipPath>
</defs>
</svg>
