<svg width="20" height="20" viewBox="0 0 20 20" fill="none" xmlns="http://www.w3.org/2000/svg">
<path d="M4.16602 4.16602H14.9994C15.6624 4.16602 16.2983 4.42941 16.7671 4.89825C17.236 5.36709 17.4994 6.00297 17.4994 6.66602V14.166C17.4994 14.8291 17.236 15.4649 16.7671 15.9338C16.2983 16.4026 15.6624 16.666 14.9994 16.666H4.16602C3.50297 16.666 2.86709 16.4026 2.39825 15.9338C1.92941 15.4649 1.66602 14.8291 1.66602 14.166V6.66602C1.66602 6.00297 1.92941 5.36709 2.39825 4.89825C2.86709 4.42941 3.50297 4.16602 4.16602 4.16602ZM4.16602 4.99935C3.74935 4.99935 3.38268 5.14102 3.09935 5.39102L9.58268 9.58268L16.066 5.39102C15.7827 5.14102 15.416 4.99935 14.9994 4.99935H4.16602ZM9.58268 10.591L2.60768 6.06602C2.54102 6.24935 2.49935 6.45768 2.49935 6.66602V14.166C2.49935 14.608 2.67494 15.032 2.9875 15.3445C3.30007 15.6571 3.72399 15.8327 4.16602 15.8327H14.9994C15.4414 15.8327 15.8653 15.6571 16.1779 15.3445C16.4904 15.032 16.666 14.608 16.666 14.166V6.66602C16.666 6.45768 16.6244 6.24935 16.5577 6.06602L9.58268 10.591Z" fill="#6C6C6C"/>
</svg>
