<svg width="17" height="17" viewBox="0 0 17 17" fill="none" xmlns="http://www.w3.org/2000/svg">
<path fill-rule="evenodd" clip-rule="evenodd" d="M9.36037 1.77324C8.86394 1.34772 8.1314 1.34772 7.63486 1.77324L3.21593 5.56098C2.92208 5.81283 2.75292 6.18057 2.75292 6.56751V14.5925C2.75292 15.3248 3.34646 15.9183 4.07868 15.9183H12.9167C13.6488 15.9183 14.2423 15.3248 14.2423 14.5925V6.56751C14.2423 6.18057 14.0733 5.81283 13.7794 5.56098L9.36037 1.77324ZM7.05976 1.10223C7.88714 0.393006 9.10809 0.393006 9.93558 1.10223L14.3545 4.88996C14.8443 5.30967 15.1261 5.92253 15.1261 6.56751V14.5925C15.1261 15.8128 14.137 16.802 12.9167 16.802H4.07868C2.85839 16.802 1.86914 15.8128 1.86914 14.5925V6.56751C1.86914 5.92253 2.15102 5.30967 2.64072 4.88996L7.05976 1.10223Z" fill="currentColor"/>
<path fill-rule="evenodd" clip-rule="evenodd" d="M9.35396 1.75404C8.86046 1.3385 8.13952 1.3385 7.64602 1.75404L0.72655 7.58099C0.53987 7.73822 0.261098 7.71435 0.10389 7.5276C-0.0533072 7.34097 -0.0294129 7.06221 0.157266 6.90498L7.07678 1.07803C7.89918 0.385456 9.10081 0.385446 9.9232 1.07802L16.8427 6.90498C17.0294 7.06221 17.0533 7.34097 16.8961 7.5276C16.7389 7.71435 16.4601 7.73822 16.2734 7.58099L9.35396 1.75404Z" fill="currentColor"/>
<path fill-rule="evenodd" clip-rule="evenodd" d="M8.05517 9.74318C7.32306 9.74318 6.72951 10.3367 6.72951 11.0688V14.1622C6.72951 14.4063 6.53159 14.6041 6.28755 14.6041C6.04352 14.6041 5.8457 14.4063 5.8457 14.1622V11.0688C5.8457 9.84865 6.83487 8.85938 8.05517 8.85938H8.93898C10.1593 8.85938 11.1484 9.84865 11.1484 11.0688V14.1622C11.1484 14.4063 10.9506 14.6041 10.7066 14.6041C10.4626 14.6041 10.2646 14.4063 10.2646 14.1622V11.0688C10.2646 10.3367 9.6712 9.74318 8.93898 9.74318H8.05517Z" fill="currentColor"/>
</svg>
