<svg width="20" height="18" viewBox="0 0 20 18" fill="none" xmlns="http://www.w3.org/2000/svg">
<path fill-rule="evenodd" clip-rule="evenodd" d="M14.584 2.09042V7.12933L17.2093 7.78567C17.5067 7.86007 17.7708 8.03173 17.9594 8.27339C18.1481 8.51505 18.2506 8.81283 18.2507 9.11942V16.0953C18.4938 16.0953 18.7269 16.1918 18.8988 16.3637C19.0707 16.5356 19.1673 16.7688 19.1673 17.0119C19.1673 17.255 19.0707 17.4882 18.8988 17.6601C18.7269 17.832 18.4938 17.9286 18.2507 17.9286H1.75065C1.50754 17.9286 1.27438 17.832 1.10247 17.6601C0.930561 17.4882 0.833984 17.255 0.833984 17.0119C0.833984 16.7688 0.930561 16.5356 1.10247 16.3637C1.27438 16.1918 1.50754 16.0953 1.75065 16.0953V9.04608C1.75049 8.79044 1.8216 8.53981 1.956 8.32235C2.0904 8.10488 2.28276 7.92919 2.51148 7.815L5.41732 6.36208V4.49667C5.4172 4.21672 5.50254 3.94341 5.66192 3.71326C5.8213 3.48312 6.04713 3.3071 6.30923 3.20875L12.7259 0.8025C12.934 0.724416 13.1579 0.697936 13.3784 0.725326C13.599 0.752717 13.8096 0.833162 13.9923 0.959772C14.1749 1.08638 14.3242 1.25538 14.4272 1.45229C14.5303 1.64921 14.5841 1.86817 14.584 2.09042ZM12.7507 2.75133L7.25065 4.81383V16.0953H12.7507V2.75133ZM14.584 9.0195V16.0953H16.4173V9.47692L14.584 9.0195ZM5.41732 8.41175L3.58398 9.32842V16.0953H5.41732V8.41175Z" fill="currentColor"/>
</svg>
