<svg width="22" height="22" viewBox="0 0 22 22" xmlns="http://www.w3.org/2000/svg">
<path fill-rule="evenodd" clip-rule="evenodd" d="M15.75 4.04263V8.84928L18.3753 9.47536C18.6728 9.54633 18.9368 9.71009 19.1255 9.9406C19.3141 10.1711 19.4166 10.4552 19.4167 10.7476V17.4019C19.6598 17.4019 19.8929 17.494 20.0648 17.658C20.2368 17.822 20.3333 18.0444 20.3333 18.2763C20.3333 18.5082 20.2368 18.7307 20.0648 18.8946C19.8929 19.0586 19.6598 19.1507 19.4167 19.1507H2.91667C2.67355 19.1507 2.44039 19.0586 2.26849 18.8946C2.09658 18.7307 2 18.5082 2 18.2763C2 18.0444 2.09658 17.822 2.26849 17.658C2.44039 17.494 2.67355 17.4019 2.91667 17.4019V10.6777C2.9165 10.4338 2.98762 10.1947 3.12201 9.9873C3.25641 9.77986 3.44877 9.61227 3.6775 9.50334L6.58333 8.1174V6.33797C6.58322 6.07093 6.66855 5.81021 6.82794 5.59068C6.98732 5.37114 7.21315 5.20324 7.47525 5.10942L13.8919 2.81408C14.1 2.7396 14.3239 2.71434 14.5445 2.74047C14.765 2.7666 14.9756 2.84333 15.1583 2.96411C15.341 3.08488 15.4902 3.24609 15.5933 3.43393C15.6963 3.62176 15.7501 3.83063 15.75 4.04263ZM15.75 10.6523V17.4019H17.5833V11.0887L15.75 10.6523ZM6.58333 10.0726L4.75 10.947V17.4019H6.58333V10.0726Z" fill="currentColor"/>
</svg>
