<svg width="22" height="22" viewBox="0 0 22 22" fill="none" xmlns="http://www.w3.org/2000/svg">
<path fill-rule="evenodd" clip-rule="evenodd" d="M2.75 3.4375C2.56766 3.4375 2.3928 3.50993 2.26386 3.63886C2.13493 3.7678 2.0625 3.94266 2.0625 4.125V5.5C2.0625 5.68234 2.13493 5.8572 2.26386 5.98614C2.3928 6.11507 2.56766 6.1875 2.75 6.1875H4.125C4.30734 6.1875 4.4822 6.11507 4.61114 5.98614C4.74007 5.8572 4.8125 5.68234 4.8125 5.5V4.125C4.8125 3.94266 4.74007 3.7678 4.61114 3.63886C4.4822 3.50993 4.30734 3.4375 4.125 3.4375H2.75ZM4.125 4.125H2.75V5.5H4.125V4.125Z" fill="white"/>
<path d="M6.3125 4.8125C6.3125 4.63016 6.38493 4.4553 6.51386 4.32636C6.6428 4.19743 6.81766 4.125 7 4.125H19.375C19.5573 4.125 19.7322 4.19743 19.8611 4.32636C19.9901 4.4553 20.0625 4.63016 20.0625 4.8125C20.0625 4.99484 19.9901 5.1697 19.8611 5.29864C19.7322 5.42757 19.5573 5.5 19.375 5.5H7C6.81766 5.5 6.6428 5.42757 6.51386 5.29864C6.38493 5.1697 6.3125 4.99484 6.3125 4.8125ZM7 9.625C6.81766 9.625 6.6428 9.69743 6.51386 9.82636C6.38493 9.9553 6.3125 10.1302 6.3125 10.3125C6.3125 10.4948 6.38493 10.6697 6.51386 10.7986C6.6428 10.9276 6.81766 11 7 11H19.375C19.5573 11 19.7322 10.9276 19.8611 10.7986C19.9901 10.6697 20.0625 10.4948 20.0625 10.3125C20.0625 10.1302 19.9901 9.9553 19.8611 9.82636C19.7322 9.69743 19.5573 9.625 19.375 9.625H7ZM7 15.125C6.81766 15.125 6.6428 15.1974 6.51386 15.3264C6.38493 15.4553 6.3125 15.6302 6.3125 15.8125C6.3125 15.9948 6.38493 16.1697 6.51386 16.2986C6.6428 16.4276 6.81766 16.5 7 16.5H19.375C19.5573 16.5 19.7322 16.4276 19.8611 16.2986C19.9901 16.1697 20.0625 15.9948 20.0625 15.8125C20.0625 15.6302 19.9901 15.4553 19.8611 15.3264C19.7322 15.1974 19.5573 15.125 19.375 15.125H7Z" fill="white"/>
<path fill-rule="evenodd" clip-rule="evenodd" d="M2.0625 9.875C2.0625 9.69266 2.13493 9.5178 2.26386 9.38886C2.3928 9.25993 2.56766 9.1875 2.75 9.1875H4.125C4.30734 9.1875 4.4822 9.25993 4.61114 9.38886C4.74007 9.5178 4.8125 9.69266 4.8125 9.875V11.25C4.8125 11.4323 4.74007 11.6072 4.61114 11.7361C4.4822 11.8651 4.30734 11.9375 4.125 11.9375H2.75C2.56766 11.9375 2.3928 11.8651 2.26386 11.7361C2.13493 11.6072 2.0625 11.4323 2.0625 11.25V9.875ZM2.75 9.875H4.125V11.25H2.75V9.875ZM2.75 14.6875C2.56766 14.6875 2.3928 14.7599 2.26386 14.8889C2.13493 15.0178 2.0625 15.1927 2.0625 15.375V16.75C2.0625 16.9323 2.13493 17.1072 2.26386 17.2361C2.3928 17.3651 2.56766 17.4375 2.75 17.4375H4.125C4.30734 17.4375 4.4822 17.3651 4.61114 17.2361C4.74007 17.1072 4.8125 16.9323 4.8125 16.75V15.375C4.8125 15.1927 4.74007 15.0178 4.61114 14.8889C4.4822 14.7599 4.30734 14.6875 4.125 14.6875H2.75ZM4.125 15.375H2.75V16.75H4.125V15.375Z" fill="white"/>
</svg>
