<svg width="24" height="24" viewBox="0 0 24 24" fill="none" xmlns="http://www.w3.org/2000/svg">
<path d="M12.0288 2.00005L12.284 2.00474C16.8598 2.15572 20.5155 5.93197 20.5 10.5527L20.4998 10.655C20.4477 13.4113 19.0686 16.1253 16.7805 18.5473C15.6517 19.7231 14.3912 20.764 13.024 21.6493L13.034 21.642L12.9858 21.6828C12.4393 22.0755 11.7151 22.1036 11.1432 21.767L11.014 21.6828L10.9537 21.6355L10.5403 21.3572C8.82311 20.1734 7.2938 18.7372 6.00692 17.1009L5.69028 16.6877C4.34207 14.9207 3.57661 12.7761 3.5 10.5263L3.50463 10.2414C3.6551 5.6514 7.41977 1.98444 12.0288 2.00005ZM12.0237 3.51751L11.7835 3.52076C8.03532 3.63503 5.02559 6.71226 5.01275 10.4999L5.03184 10.8569C5.16175 12.6374 5.80718 14.3442 6.89636 15.7718C8.24857 17.5831 9.90797 19.1416 11.7987 20.376L11.8809 20.4381C11.9492 20.4974 12.0506 20.4974 12.119 20.4381L12.2036 20.3745C13.4727 19.5526 14.6429 18.5863 15.6866 17.4992C17.7334 15.3325 18.9434 12.9515 18.9871 10.6407L18.9839 10.3092C18.87 6.54947 15.8022 3.53043 12.0237 3.51751ZM11.9999 7.40129C13.7883 7.40129 15.2381 8.85554 15.2381 10.6495C15.2381 12.4434 13.7883 13.8976 11.9999 13.8976C10.2115 13.8976 8.76176 12.4434 8.76176 10.6495C8.76176 8.85554 10.2115 7.40129 11.9999 7.40129ZM11.9999 8.91871C11.047 8.91871 10.2745 9.69359 10.2745 10.6495C10.2745 11.6053 11.047 12.3802 11.9999 12.3802C12.9528 12.3802 13.7253 11.6053 13.7253 10.6495C13.7253 9.69359 12.9528 8.91871 11.9999 8.91871Z" fill="#A0A0A0"/>
</svg>
