<svg width="20" height="20" viewBox="0 0 20 20" fill="none" xmlns="http://www.w3.org/2000/svg">
<path d="M2.27677 10.6184H13.1128C13.4586 10.6184 13.7382 10.3384 13.7382 9.99344C13.7382 9.64844 13.4586 9.36844 13.1128 9.36844H2.31586L4.57825 7.1075C4.82246 6.86344 4.82246 6.46781 4.57825 6.22375C4.33403 5.97969 3.93815 5.97969 3.69393 6.22375L0 10.0128L3.69393 13.8019C3.81619 13.9241 3.97598 13.985 4.13609 13.985C4.29619 13.985 4.45598 13.9241 4.57825 13.8019C4.82246 13.5578 4.82246 13.1622 4.57825 12.9181L2.27677 10.6184ZM18.7489 0H8.11706C7.42599 0 6.86625 0.559687 6.86625 1.25V6.875H8.12519V2.01219C8.12519 1.59469 8.46415 1.25594 8.88192 1.25594H17.9643C18.3824 1.25594 18.721 1.59469 18.721 2.01219L18.7407 17.9944C18.7407 18.4119 18.4021 18.7506 17.984 18.7506H8.88225C8.46449 18.7506 8.12552 18.4119 8.12552 17.9944V13.1044L6.86659 13.1059V18.75C6.86659 19.4403 7.42632 20 8.11739 20H18.7489C19.44 20 20 19.4403 20 18.75V1.25C19.9997 0.559687 19.4396 0 18.7489 0Z" fill="#DC3545"/>
</svg>
