<svg width="64" height="64" viewBox="0 0 64 64" fill="none" xmlns="http://www.w3.org/2000/svg">
<path d="M31.9698 5.34173C31.2632 5.34973 30.5886 5.63849 30.0937 6.14476C29.5987 6.65103 29.3239 7.33354 29.3292 8.04283V29.4803C29.3292 30.1913 29.6106 30.8732 30.1115 31.376C30.6124 31.8788 31.2917 32.1613 32.0001 32.1613C32.7084 32.1613 33.3878 31.8788 33.8887 31.376C34.3896 30.8732 34.6709 30.1913 34.6709 29.4803V8.04283C34.6736 7.6865 34.6055 7.33321 34.4706 7.00361C34.3357 6.67401 34.1367 6.37471 33.8852 6.12322C33.6337 5.87172 33.3348 5.67308 33.0059 5.53889C32.677 5.40471 32.3248 5.33768 31.9698 5.34173ZM47.5314 10.7036C47.4441 10.6993 47.3567 10.6993 47.2694 10.7036C46.7404 10.7478 46.2366 10.9491 45.8222 11.282C45.4078 11.6148 45.1015 12.064 44.9425 12.5723C44.7836 13.0806 44.7791 13.6249 44.9296 14.1358C45.0802 14.6467 45.3789 15.1009 45.7878 15.4406C50.4139 19.3814 53.3368 25.2472 53.3368 31.8287C53.3368 43.7216 43.8224 53.3064 32.0102 53.3064C29.2 53.3012 26.4184 52.7416 23.8248 51.6598C21.2312 50.5779 18.8764 48.9951 16.8954 47.0019C14.9144 45.0087 13.346 42.6443 12.2801 40.0441C11.2141 37.4439 10.6716 34.659 10.6835 31.8488C10.6835 25.2976 13.5661 19.4721 18.1418 15.5213C18.4265 15.2986 18.6632 15.0203 18.8377 14.7032C19.0123 14.3861 19.121 14.0368 19.1573 13.6764C19.1936 13.316 19.1567 12.9519 19.049 12.6062C18.9412 12.2604 18.7648 11.9402 18.5303 11.6648C18.2958 11.3894 18.0082 11.1646 17.6847 11.0039C17.3613 10.8432 17.0087 10.75 16.6484 10.7299C16.288 10.7098 15.9274 10.7631 15.5881 10.8868C15.2489 11.0105 14.9382 11.2019 14.6747 11.4494C11.7443 13.9747 9.39342 17.1027 7.78271 20.6198C6.17201 24.1369 5.33942 27.9603 5.34181 31.8287C5.33373 38.9216 8.13676 45.7286 13.1371 50.7591C18.1374 55.7897 24.9274 58.6337 32.0202 58.6683C39.112 58.6363 45.9016 55.7925 50.8992 50.7608C55.8969 45.7292 58.6946 38.9205 58.6785 31.8287C58.6785 23.6447 55.0199 16.2872 49.2448 11.3688C48.77 10.9507 48.1629 10.715 47.5314 10.7036Z" fill="black"/>
</svg>
