<svg width="24" height="24" viewBox="0 0 24 24" fill="none" xmlns="http://www.w3.org/2000/svg">
<path d="M12 20.8415C11.9093 20.8415 11.8137 20.8332 11.713 20.8165C11.6123 20.7998 11.519 20.7748 11.433 20.7415C9.46433 19.9915 7.9 18.7195 6.74 16.9255C5.58 15.1315 5 13.1895 5 11.0995V6.8165C5 6.47383 5.09767 6.16517 5.293 5.8905C5.48767 5.61583 5.74 5.41683 6.05 5.2935L11.435 3.2935C11.6297 3.22283 11.818 3.1875 12 3.1875C12.182 3.1875 12.3707 3.22283 12.566 3.2935L17.95 5.2935C18.2593 5.4175 18.5117 5.6165 18.707 5.8905C18.9023 6.16517 19 6.47383 19 6.8165V11.0995C19 13.1895 18.42 15.1315 17.26 16.9255C16.1 18.7195 14.536 19.9915 12.568 20.7415C12.4807 20.7748 12.387 20.7998 12.287 20.8165C12.187 20.8332 12.0913 20.8415 12 20.8415ZM12 19.8995C13.7333 19.3495 15.1667 18.2495 16.3 16.5995C17.4333 14.9495 18 13.1162 18 11.0995V6.7975C18 6.6695 17.9647 6.55417 17.894 6.4515C17.824 6.34883 17.7247 6.27217 17.596 6.2215L12.212 4.2215C12.148 4.19483 12.0773 4.1815 12 4.1815C11.9227 4.1815 11.852 4.19483 11.788 4.2215L6.404 6.2215C6.27533 6.27217 6.176 6.34883 6.106 6.4515C6.03533 6.55417 6 6.6695 6 6.7975V11.0995C6 13.1162 6.56667 14.9495 7.7 16.5995C8.83333 18.2495 10.2667 19.3495 12 19.8995Z" fill="#414141"/>
<path d="M10 11.9048L11.6667 13.5714L15 10" stroke="#414141" stroke-linecap="round" stroke-linejoin="round"/>
</svg>
