<svg width="22" height="22" viewBox="0 0 22 22" xmlns="http://www.w3.org/2000/svg">
<path fill-rule="evenodd" clip-rule="evenodd" d="M11.0007 3.66536C9.71802 3.66513 8.45776 4.00131 7.34565 4.64036C6.23354 5.2794 5.3085 6.19896 4.66284 7.30724C4.01719 8.41552 3.67351 9.67376 3.6661 10.9564C3.6587 12.239 3.98784 13.5011 4.62066 14.6168C5.04839 14.0609 5.59822 13.6108 6.22766 13.3013C6.85709 12.9919 7.54926 12.8313 8.25066 12.832H13.7507C14.4521 12.8313 15.1442 12.9919 15.7737 13.3013C16.4031 13.6108 16.9529 14.0609 17.3807 14.6168C18.0135 13.5011 18.3426 12.239 18.3352 10.9564C18.3278 9.67376 17.9841 8.41552 17.3385 7.30724C16.6928 6.19896 15.7678 5.2794 14.6557 4.64036C13.5436 4.00131 12.2833 3.66513 11.0007 3.66536ZM18.2817 16.5684C18.3966 16.4186 18.5066 16.2653 18.6117 16.1082C19.628 14.5982 20.1697 12.8188 20.1673 10.9987C20.1673 5.93595 16.0634 1.83203 11.0007 1.83203C5.93791 1.83203 1.83399 5.93595 1.83399 10.9987C1.83111 13.0124 2.49403 14.9706 3.71958 16.5684L3.71499 16.5849L4.04041 16.9634C4.90014 17.9686 5.9676 18.7753 7.16921 19.3281C8.37082 19.8809 9.678 20.1665 11.0007 20.1654C11.1987 20.1654 11.3954 20.1593 11.591 20.147C13.245 20.0427 14.8394 19.4897 16.2027 18.5474C16.8548 18.0976 17.4458 17.5652 17.9609 16.9634L18.2863 16.5849L18.2817 16.5684ZM11.0007 5.4987C10.2713 5.4987 9.57184 5.78843 9.05612 6.30415C8.54039 6.81988 8.25066 7.51935 8.25066 8.2487C8.25066 8.97804 8.54039 9.67752 9.05612 10.1932C9.57184 10.709 10.2713 10.9987 11.0007 10.9987C11.73 10.9987 12.4295 10.709 12.9452 10.1932C13.4609 9.67752 13.7507 8.97804 13.7507 8.2487C13.7507 7.51935 13.4609 6.81988 12.9452 6.30415C12.4295 5.78843 11.73 5.4987 11.0007 5.4987Z" fill="currentColor"/>
</svg>
