<svg width="24" height="24" viewBox="0 0 24 24" fill="none" xmlns="http://www.w3.org/2000/svg">
<path d="M8.57115 5.14453H6.28544C5.98233 5.14453 5.69164 5.26494 5.47731 5.47927C5.26299 5.69359 5.14258 5.98428 5.14258 6.28739V18.8588C5.14258 19.1619 5.26299 19.4526 5.47731 19.6669C5.69164 19.8813 5.98233 20.0017 6.28544 20.0017H17.714C18.0171 20.0017 18.3078 19.8813 18.5221 19.6669C18.7365 19.4526 18.8569 19.1619 18.8569 18.8588V6.28739C18.8569 5.98428 18.7365 5.69359 18.5221 5.47927C18.3078 5.26494 18.0171 5.14453 17.714 5.14453H15.4283" stroke="#414141" stroke-linecap="round" stroke-linejoin="round"/>
<path d="M10.8563 9.71429H16.5706M10.8563 13.1429H16.5706M10.8563 16.5714H16.5706M7.42773 9.71429H8.57059M7.42773 13.1429H8.57059M7.42773 16.5714H8.57059M9.71345 4H14.2849C14.588 4 14.8787 4.12041 15.093 4.33474C15.3073 4.54906 15.4277 4.83975 15.4277 5.14286C15.4277 5.44596 15.3073 5.73665 15.093 5.95098C14.8787 6.16531 14.588 6.28571 14.2849 6.28571H9.71345C9.41034 6.28571 9.11965 6.16531 8.90533 5.95098C8.691 5.73665 8.57059 5.44596 8.57059 5.14286C8.57059 4.83975 8.691 4.54906 8.90533 4.33474C9.11965 4.12041 9.41034 4 9.71345 4Z" stroke="#414141" stroke-linecap="round" stroke-linejoin="round"/>
</svg>
