<svg width="24" height="25" viewBox="0 0 24 25" fill="none" xmlns="http://www.w3.org/2000/svg">
<path fill-rule="evenodd" clip-rule="evenodd" d="M20.2064 7.17951C20.3939 7.36703 20.4992 7.62134 20.4992 7.88651C20.4992 8.15167 20.3939 8.40598 20.2064 8.5935L10.7064 18.0935C10.5189 18.281 10.2646 18.3863 9.99943 18.3863C9.73427 18.3863 9.47996 18.281 9.29243 18.0935L4.79243 13.5935C4.61027 13.4049 4.50948 13.1523 4.51176 12.8901C4.51403 12.6279 4.6192 12.3771 4.80461 12.1917C4.99002 12.0063 5.24083 11.9011 5.50303 11.8988C5.76523 11.8966 6.01783 11.9973 6.20643 12.1795L9.99943 15.9725L18.7924 7.17951C18.98 6.99203 19.2343 6.88672 19.4994 6.88672C19.7646 6.88672 20.0189 6.99203 20.2064 7.17951Z" fill="white"/>
</svg>
