<svg width="17" height="17" viewBox="0 0 17 17" fill="none" xmlns="http://www.w3.org/2000/svg">
<path d="M8.49935 1.41602C12.4115 1.41602 15.5827 4.58722 15.5827 8.49935C15.5827 12.4115 12.4115 15.5827 8.49935 15.5827C4.58722 15.5827 1.41602 12.4115 1.41602 8.49935C1.41602 4.58722 4.58722 1.41602 8.49935 1.41602ZM8.49935 2.83268C6.99645 2.83268 5.55512 3.4297 4.49241 4.49241C3.4297 5.55512 2.83268 6.99645 2.83268 8.49935C2.83268 10.0022 3.4297 11.4436 4.49241 12.5063C5.55512 13.569 6.99645 14.166 8.49935 14.166C10.0022 14.166 11.4436 13.569 12.5063 12.5063C13.569 11.4436 14.166 10.0022 14.166 8.49935C14.166 6.99645 13.569 5.55512 12.5063 4.49241C11.4436 3.4297 10.0022 2.83268 8.49935 2.83268ZM8.49935 4.24935C8.67284 4.24937 8.8403 4.31307 8.96995 4.42836C9.0996 4.54364 9.18242 4.7025 9.20272 4.87481L9.20768 4.95768V8.2061L11.1251 10.1236C11.2522 10.251 11.3259 10.4221 11.3314 10.602C11.3369 10.7818 11.2737 10.9571 11.1547 11.092C11.0357 11.227 10.8697 11.3116 10.6906 11.3287C10.5114 11.3458 10.3325 11.294 10.1901 11.1839L10.1236 11.1251L7.99856 9.00014C7.88847 8.88996 7.81776 8.74656 7.79739 8.59214L7.79101 8.49935V4.95768C7.79101 4.76982 7.86564 4.58965 7.99848 4.45681C8.13132 4.32398 8.31149 4.24935 8.49935 4.24935Z" fill="#3A3E3F"/>
</svg>
