<svg width="35" height="37" viewBox="0 0 35 37" fill="none" xmlns="http://www.w3.org/2000/svg">
<path fill-rule="evenodd" clip-rule="evenodd" d="M0 20.722C0.0620826 13.1653 5.47639 6.6983 12.9437 5.43891C18.1752 4.55664 22.723 6.04663 26.5698 9.69215C26.9801 10.0808 27.1386 10.5474 26.9601 11.09C26.7985 11.5808 26.4368 11.872 25.9282 11.9564C25.4462 12.0363 25.0675 11.8292 24.7297 11.4991C23.0184 9.82557 20.9959 8.7131 18.6734 8.13507C11.5354 6.35897 4.17496 11.1042 2.86197 18.3324C1.58137 25.3802 5.95454 32.011 12.9699 33.4752C17.4202 34.4037 21.3425 33.1898 24.6723 30.0934C25.0363 29.7549 25.4134 29.4965 25.9316 29.5837C26.4395 29.6689 26.8004 29.9615 26.9616 30.4524C27.1336 30.9772 26.9878 31.4338 26.5972 31.8209C25.1385 33.2662 23.4618 34.3883 21.5627 35.1653C12.9541 38.6851 3.25144 34.005 0.655924 25.0786C0.471604 24.4447 0.326225 23.7942 0.232137 23.1417C0.116455 22.3404 0.0740364 21.5291 0 20.722Z" fill="#007AFF"/>
<path d="M25.9269 24.5187L21.5451 20.1117C21.2818 19.847 21.2818 19.4177 21.5451 19.1529L22.4984 18.194C22.7617 17.9293 23.1885 17.9293 23.4518 18.194L26.4036 21.1628L32.726 14.804C32.9892 14.5393 33.4161 14.5393 33.6794 14.804L34.6327 15.7629C34.8959 16.0276 34.8959 16.4569 34.6327 16.7217L26.8803 24.5187C26.617 24.7835 26.1901 24.7835 25.9269 24.5187Z" fill="#007AFF"/>
<path fill-rule="evenodd" clip-rule="evenodd" d="M16.9126 16.2354C16.9126 17.6953 16.9053 19.1552 16.9169 20.6151C16.9203 21.0774 16.77 21.4488 16.443 21.7746C14.336 23.8731 12.2364 25.9793 10.1317 28.0808C9.53676 28.6747 8.7613 28.7059 8.22453 28.1699C7.68892 27.6355 7.71824 26.8585 8.31323 26.2615C10.2312 24.3374 12.1585 22.422 14.0672 20.4882C14.2157 20.3378 14.3248 20.0753 14.326 19.8639C14.3433 17.1605 14.3337 14.457 14.3395 11.7535C14.3414 10.7652 15.2445 10.1193 16.109 10.4875C16.6466 10.7166 16.9122 11.1458 16.9122 11.7342C16.9126 13.2346 16.9126 14.735 16.9126 16.2354Z" fill="#007AFF"/>
<path fill-rule="evenodd" clip-rule="evenodd" d="M15.6372 2.57562C14.5429 2.57562 13.4489 2.57755 12.3546 2.57523C11.5186 2.57331 10.9355 2.04888 10.9297 1.29964C10.9236 0.534215 11.5116 0.00207663 12.3723 0.00130541C14.5475 -0.000237012 16.7223 -0.000622618 18.8971 0.00130541C19.7362 0.00207663 20.3146 0.523425 20.3212 1.27574C20.3277 2.04233 19.7405 2.57369 18.8794 2.57523C17.7986 2.57716 16.7177 2.57562 15.6372 2.57562Z" fill="#007AFF"/>
</svg>
